<svg id="Capa_1" enable-background="new 0 0 512 512" height="512" viewBox="0 0 512 512" width="512" xmlns="http://www.w3.org/2000/svg"><g id="XMLID_236_"><g id="XMLID_994_"><path id="XMLID_1132_" d="m504.594 242.171c-4.368-1.174-8.982.732-11.248 4.647-11.788 20.361-33.727 33.01-57.255 33.01h-99.944c14.236-7.595 27.476-17.399 39.229-29.153 31.532-31.532 48.771-73.533 47.298-115.235-.185-5.245-4.396-9.455-9.641-9.64-33.031-1.172-66.21 9.398-94.247 29.49.471-5.598.713-11.25.713-16.943 0-52.655-20.66-102.103-56.684-135.664-3.84-3.578-9.793-3.578-13.633 0-36.022 33.562-56.682 83.01-56.682 135.665 0 5.692.242 11.345.713 16.945-28.041-20.092-61.228-30.662-94.247-29.492-5.245.186-9.455 4.395-9.641 9.64-1.474 41.702 15.766 83.703 47.298 115.235 11.763 11.762 25.004 21.561 39.237 29.153h-99.951c-23.528 0-45.467-12.649-57.255-33.01-2.267-3.915-6.886-5.822-11.248-4.647-4.369 1.173-7.406 5.133-7.406 9.657v105.283c0 85.406 69.482 154.888 154.888 154.888 23.851 0 46.827-6.47 67.008-18.794l2.965 3.706c7.609 9.512 18.959 14.967 31.14 14.967s23.53-5.456 31.14-14.967l2.965-3.706c20.179 12.324 43.156 18.794 67.006 18.794 21.866 0 43.008-4.468 62.837-13.28 5.047-2.243 7.32-8.152 5.078-13.199-2.241-5.046-8.152-7.32-13.199-5.077-17.256 7.668-35.665 11.556-54.716 11.556-22.835 0-44.722-7.022-63.295-20.305-4.321-3.09-10.306-2.262-13.626 1.887l-8.669 10.836c-3.793 4.742-9.451 7.461-15.522 7.461s-11.73-2.719-15.523-7.461l-8.669-10.836c-3.32-4.149-9.304-4.979-13.626-1.887-18.573 13.283-40.459 20.305-63.294 20.305-74.377 0-134.888-60.51-134.888-134.888v-77.924c15.385 13.097 35.173 20.641 55.909 20.641h109.432c26.298 0 50.477 15.398 61.598 39.229 1.643 3.521 5.177 5.771 9.061 5.771s7.419-2.251 9.061-5.771c11.121-23.831 35.3-39.229 61.598-39.229h109.432c20.736 0 40.524-7.544 55.909-20.641v77.924c0 24-6.379 47.562-18.448 68.139-2.794 4.764-1.197 10.891 3.566 13.685 4.764 2.792 10.891 1.197 13.686-3.567 13.866-23.642 21.196-50.703 21.196-78.257v-105.283c0-4.524-3.037-8.484-7.406-9.658zm-290.382-128.566 31.788 31.788v75.652c-3.569 1.104-6.903 2.806-9.896 5.038-15.458-25.915-23.604-56.117-23.604-87.734 0-8.365.583-16.633 1.712-24.744zm70.723 162.771c1.803 3.987 1.582 8.448-.606 12.237s-5.94 6.211-10.294 6.643c-2.859.284-5.458 1.785-7.134 4.119-2.552 3.555-6.525 5.593-10.901 5.593s-8.35-2.039-10.901-5.593c-1.676-2.334-4.274-3.835-7.134-4.119-4.354-.433-8.106-2.854-10.294-6.643-2.188-3.79-2.409-8.25-.606-12.238 1.184-2.619 1.184-5.62 0-8.238-1.803-3.987-1.582-8.448.606-12.237 2.188-3.79 5.939-6.211 10.293-6.643 2.86-.284 5.459-1.785 7.135-4.12 2.553-3.555 6.525-5.593 10.901-5.593s8.349 2.039 10.901 5.593c1.676 2.335 4.274 3.835 7.135 4.12 4.353.433 8.105 2.854 10.293 6.643 2.189 3.79 2.409 8.25.606 12.238-1.183 2.618-1.183 5.619 0 8.238zm-9.047-50.301c-2.991-2.229-6.322-3.928-9.888-5.031v-43.902l33.406-33.407c-.871 29.683-8.939 57.907-23.518 82.34zm126.752-80.24c-1.471 32.946-16.248 65.542-41.406 90.699-16.17 16.171-35.484 28.142-56.315 34.991 2.418-8.596 1.308-17.699-3.269-25.626-2.227-3.857-5.11-7.136-8.475-9.749 9.363-15.73 16.317-32.835 20.719-50.821 24.88-23.993 56.642-38.063 88.746-39.494zm-146.64-121.733c23.106 24.558 37.88 57.148 42.183 92.573l-32.183 32.182v-58.357c0-5.523-4.478-10-10-10-5.523 0-10 4.477-10 10v26.608l-26.889-26.888c7.084-25.065 19.674-47.821 36.889-66.118zm-146.64 121.733c32.104 1.433 63.872 15.506 88.752 39.501 4.402 17.981 11.35 35.092 20.707 50.82-3.362 2.613-6.244 5.89-8.469 9.745-4.575 7.924-5.686 17.023-3.271 25.616-20.828-6.847-40.13-18.8-56.312-34.982-25.159-25.158-39.936-57.754-41.407-90.7z"/><path id="XMLID_1369_" d="m190.847 359.378c-18.585-12.864-40.396-19.663-63.077-19.663-23.045 0-45.148 7.004-63.921 20.255-3.771 2.663-5.23 7.561-3.53 11.853 8.099 20.446 21.971 37.892 40.117 50.452 18.585 12.864 40.396 19.663 63.077 19.663 23.046 0 45.149-7.004 63.921-20.256 3.771-2.662 5.23-7.56 3.53-11.852-8.099-20.446-21.971-37.892-40.117-50.452zm-27.334 62.56c-34.817 0-65.894-19.388-81.266-50.031 13.791-7.999 29.373-12.192 45.522-12.192 34.817 0 65.895 19.388 81.266 50.031-13.79 7.998-29.373 12.192-45.522 12.192z"/><path id="XMLID_1386_" d="m448.151 359.97c-18.772-13.251-40.876-20.255-63.921-20.255-22.681 0-44.492 6.799-63.077 19.663-18.146 12.56-32.018 30.006-40.117 50.452-1.7 4.292-.241 9.19 3.53 11.852 18.771 13.251 40.875 20.256 63.921 20.256 22.681 0 44.492-6.799 63.077-19.663 18.146-12.56 32.018-30.006 40.117-50.452 1.701-4.293.242-9.191-3.53-11.853zm-99.664 61.968c-16.149 0-31.732-4.194-45.522-12.192 15.371-30.643 46.448-50.031 81.266-50.031 16.149 0 31.731 4.193 45.522 12.192-15.371 30.643-46.448 50.031-81.266 50.031z"/><path id="XMLID_1387_" d="m453.67 455.13c-2.63 0-5.21 1.06-7.07 2.93-1.859 1.86-2.93 4.44-2.93 7.07s1.07 5.21 2.93 7.07 4.44 2.93 7.07 2.93 5.21-1.07 7.07-2.93c1.859-1.86 2.93-4.44 2.93-7.07s-1.07-5.21-2.93-7.07c-1.86-1.87-4.44-2.93-7.07-2.93z"/></g></g></svg>