<svg id="Capa_1" enable-background="new 0 0 512 512" height="512" viewBox="0 0 512 512" width="512" xmlns="http://www.w3.org/2000/svg"><g><path d="m114.007 125.293c9.824 0 19.571 2.411 28.188 6.973 3.636 1.924 8.144.538 10.069-3.098s.538-8.144-3.098-10.069c-10.757-5.694-22.914-8.705-35.159-8.705-41.487 0-75.238 33.751-75.238 75.238s33.752 75.238 75.238 75.238 75.238-33.751 75.238-75.238c0-13.935-3.84-27.546-11.106-39.361-2.155-3.504-6.742-4.599-10.247-2.443-3.504 2.155-4.598 6.743-2.443 10.247 5.822 9.467 8.899 20.379 8.899 31.557 0 9.635-2.282 18.743-6.316 26.831-6.376-7.338-14.697-12.653-24.006-15.328 3.349-5.467 5.217-11.826 5.217-18.397 0-19.429-15.807-35.236-35.235-35.236s-35.235 15.807-35.235 35.236c0 6.57 1.869 12.93 5.217 18.396-9.309 2.676-17.63 7.991-24.006 15.329-4.034-8.088-6.316-17.196-6.316-26.831-.001-33.27 27.068-60.339 60.339-60.339zm-15.98 84.772c3.897.44 7.921-1.47 8.951-5.47.89-3.231-.487-6.66-3.365-8.376-6.226-3.714-9.942-10.248-9.942-17.48 0-11.214 9.123-20.338 20.337-20.338s20.337 9.123 20.337 20.338c0 7.231-3.717 13.766-9.942 17.48-2.879 1.717-4.256 5.145-3.365 8.376 1.031 4 5.053 5.909 8.95 5.47 11.855 0 22.698 5.799 29.294 15.393-11.066 12.565-27.254 20.514-45.274 20.514-18.019 0-34.208-7.95-45.274-20.514 6.595-9.594 17.438-15.393 29.293-15.393z"/><path d="m405.229 150.46h-84.202c-3.379-24.155-14.914-46.383-32.933-63.185-19.824-18.485-45.677-28.664-72.797-28.664h-108.526c-58.874.001-106.771 47.898-106.771 106.771v40.501c0 43.473 25.984 82.247 66.197 98.782 3.709 1.553 8.158-.214 9.722-4.057 1.565-3.805-.252-8.158-4.057-9.722-34.604-14.228-56.964-47.594-56.964-85.003v-40.501c0-50.659 41.214-91.872 91.872-91.872h108.527c45.115 0 83.464 33.205 90.648 76.95h-9.242c-58.874 0-106.771 47.897-106.771 106.771v40.501.024h-49.581c-2.661 0-5.12 1.42-6.451 3.725l-24.915 43.153c-.624 1.08-1.615 1.242-2.151 1.242-.535 0-1.526-.161-2.15-1.242l-11.023-19.094c-2.057-3.563-6.613-4.784-10.176-2.727s-4.784 6.613-2.726 10.176l11.024 19.094c3.141 5.441 8.768 8.69 15.052 8.691 6.283 0 11.911-3.249 15.052-8.691l22.764-39.429h46.328c7.281 51.834 51.913 91.849 105.723 91.849h70.203l23.207 40.195c3.142 5.442 8.769 8.691 15.053 8.691s11.911-3.249 15.052-8.691l28.552-49.452c12.565-5.61 23.791-13.503 33.4-23.488 2.853-2.964 2.762-7.68-.202-10.533-2.964-2.854-7.68-2.763-10.533.202-8.784 9.127-19.133 16.222-30.761 21.089-1.504.629-2.759 1.735-3.575 3.147l-29.784 51.586c-.623 1.08-1.614 1.241-2.149 1.241s-1.527-.161-2.151-1.242l-25.357-43.92c-1.331-2.305-3.79-3.725-6.451-3.725h-74.504c-50.659 0-91.872-41.214-91.872-91.872v-40.501c0-50.659 41.214-91.872 91.872-91.872h108.527c50.659 0 91.872 41.214 91.872 91.872v40.501c0 13.327-2.788 26.175-8.287 38.188-1.712 3.741-.068 8.162 3.673 9.873 3.74 1.712 8.161.068 9.874-3.673 6.395-13.973 9.638-28.908 9.638-44.389v-40.501c.001-58.872-47.896-106.769-106.77-106.769z"/><path d="m228.701 277.481c0 41.487 33.752 75.238 75.238 75.238 41.487 0 75.238-33.752 75.238-75.238s-33.752-75.238-75.238-75.238-75.238 33.752-75.238 75.238zm75.238 60.341c-18.019 0-34.208-7.95-45.274-20.515 6.596-9.595 17.439-15.393 29.294-15.393 3.897.44 7.921-1.47 8.951-5.47.89-3.231-.487-6.66-3.366-8.377-6.226-3.713-9.942-10.247-9.942-17.479 0-11.214 9.123-20.337 20.338-20.337 11.213 0 20.337 9.123 20.337 20.337 0 7.232-3.717 13.766-9.942 17.479-2.879 1.717-4.256 5.146-3.366 8.377 1.03 4 5.054 5.909 8.951 5.47 11.855 0 22.698 5.799 29.294 15.393-11.066 12.565-27.255 20.515-45.275 20.515zm60.341-60.341c0 9.635-2.282 18.743-6.316 26.831-6.376-7.338-14.697-12.653-24.006-15.328 3.348-5.467 5.217-11.827 5.217-18.397 0-19.429-15.806-35.235-35.235-35.235s-35.236 15.807-35.236 35.235c0 6.57 1.869 12.93 5.217 18.397-9.308 2.676-17.629 7.991-24.006 15.329-4.034-8.088-6.316-17.196-6.316-26.832 0-33.271 27.069-60.34 60.34-60.34 33.272.001 60.341 27.069 60.341 60.34z"/><path d="m461.199 252.807h-54.788c-4.114 0-7.449 3.335-7.449 7.449s3.335 7.449 7.449 7.449h54.788c4.114 0 7.449-3.335 7.449-7.449s-3.335-7.449-7.449-7.449z"/><path d="m461.199 287.258h-54.788c-4.114 0-7.449 3.335-7.449 7.449s3.335 7.449 7.449 7.449h54.788c4.114 0 7.449-3.335 7.449-7.449 0-4.113-3.335-7.449-7.449-7.449z"/></g></svg>