<svg id="Capa_1" enable-background="new 0 0 513.152 513.152" height="512" viewBox="0 0 513.152 513.152" width="512" xmlns="http://www.w3.org/2000/svg"><g><path d="m116.813 347.476c-57.09-3.149-101.812-50.448-101.813-107.68 0-28.49 10.957-55.341 30.852-75.605 2.902-2.955 2.858-7.704-.098-10.605-2.955-2.901-7.704-2.859-10.605.098-22.667 23.084-35.149 53.666-35.149 86.112.001 65.192 50.948 119.07 115.986 122.657.141.008.28.012.42.012 3.952 0 7.262-3.092 7.481-7.087.229-4.136-2.939-7.674-7.074-7.902z"/><path d="m479.3 255.136c-1.267-.547-1.776-1.555-1.967-2.106-.192-.554-.415-1.665.245-2.883 7.03-12.967 10.579-27.664 10.263-42.504-.956-44.818-36.772-81.497-81.539-83.504-9.19-.413-18.301.635-27.076 3.113-1.063.298-1.941-.009-2.491-.32-.501-.285-1.395-.959-1.749-2.275-14.276-53.054-62.661-90.107-117.663-90.107-51.496 0-97.654 32.597-114.859 81.112-.547 1.542-2.094 2.512-3.685 2.307-5.598-.727-11.306-1.081-16.971-1.024-20.922.177-41.531 5.688-59.6 15.937-3.604 2.044-4.867 6.621-2.823 10.224 2.043 3.603 6.621 4.867 10.224 2.823 15.855-8.994 33.949-13.83 52.325-13.984 4.982-.039 9.996.262 14.913.899 8.548 1.115 16.859-4.007 19.753-12.168 15.087-42.543 55.564-71.126 100.723-71.126 48.232 0 90.661 32.488 103.179 79.006 1.294 4.808 4.512 8.971 8.828 11.421 4.291 2.438 9.253 3.045 13.972 1.712 7.231-2.042 14.747-2.902 22.329-2.564 36.902 1.654 66.427 31.893 67.215 68.84.261 12.239-2.662 24.354-8.453 35.034-2.484 4.583-2.934 10.028-1.233 14.939 1.699 4.908 5.416 8.907 10.198 10.971 14.906 6.434 24.639 21.071 24.793 37.292.103 10.771-4.124 21.026-11.901 28.879-7.913 7.988-18.827 12.57-29.944 12.57h-59.552c-4.143 0-7.5 3.357-7.5 7.5s3.357 7.5 7.5 7.5h59.552c15.092 0 29.891-6.201 40.602-17.015 10.616-10.718 16.385-24.773 16.244-39.577-.214-22.152-13.501-42.139-33.852-50.922z"/><path d="m352.416 289.105v-25.497c0-15.047-3.396-29.462-10.094-42.844-1.854-3.704-6.36-5.204-10.063-3.351-3.704 1.854-5.204 6.359-3.351 10.063 5.646 11.279 8.508 23.436 8.508 36.131v25.308h-23v-25.308c0-31.893-25.947-57.84-57.84-57.84-31.894 0-57.841 25.947-57.841 57.84v25.308h-22.999v-25.308c0-44.576 36.265-80.841 80.84-80.841 20.333 0 39.768 7.581 54.725 21.346 3.048 2.806 7.793 2.607 10.598-.439 2.805-3.048 2.608-7.793-.439-10.598-17.734-16.32-40.776-25.309-64.883-25.309-52.847 0-95.84 42.994-95.84 95.841v25.497c-12.286 1.493-21.837 11.979-21.837 24.661v126.923c0 20.906 17.009 37.914 37.915 37.914h159.523c20.906 0 37.914-17.008 37.914-37.914v-16.007c0-4.143-3.357-7.5-7.5-7.5s-7.5 3.357-7.5 7.5v16.007c0 12.635-10.279 22.914-22.914 22.914h-159.524c-12.636 0-22.915-10.279-22.915-22.914v-126.922c0-5.432 4.419-9.851 9.852-9.851h185.65c5.432 0 9.851 4.419 9.851 9.851v78.954c0 4.143 3.357 7.5 7.5 7.5s7.5-3.357 7.5-7.5v-78.954c0-12.682-9.551-23.168-21.836-24.661zm-138.681-25.497c0-23.622 19.219-42.84 42.841-42.84s42.84 19.218 42.84 42.84v25.308h-85.681z"/><path d="m227.375 418.505c2.859 3.905 7.456 6.236 12.296 6.236h33.443c4.84 0 9.437-2.331 12.296-6.236 2.859-3.904 3.694-8.99 2.233-13.604l-6.453-20.378c4.925-6.144 7.378-13.853 6.913-21.76-.939-15.996-13.707-28.808-29.698-29.8-8.889-.563-17.312 2.487-23.766 8.554-6.364 5.981-10.015 14.42-10.015 23.151 0 7.208 2.472 14.241 6.97 19.856l-6.453 20.376c-1.46 4.614-.625 9.7 2.234 13.605zm12.067-9.076 6.614-20.889c1.439-4.544.461-9.487-2.616-13.224-2.496-3.031-3.815-6.713-3.815-10.648 0-4.677 1.878-9.017 5.287-12.222 3.144-2.953 7.184-4.546 11.479-4.546.36 0 .722.011 1.085.033 8.291.515 15.166 7.415 15.653 15.709.251 4.266-1.097 8.416-3.795 11.686-3.072 3.727-4.047 8.665-2.606 13.209l6.615 20.891c.02.06.037.116-.035.214-.071.099-.131.099-.193.099h-33.443c-.063 0-.122 0-.193-.099-.074-.097-.056-.154-.037-.213z"/></g></svg>