<svg xmlns="http://www.w3.org/2000/svg" xmlns:xlink="http://www.w3.org/1999/xlink" version="1.1" id="Capa_1" x="0px" y="0px" viewBox="0 0 512 512" style="enable-background:new 0 0 512 512;" xml:space="preserve"><g><g><path d="M467,121H361V45c0-24.813-20.187-45-45-45H45C20.187,0,0,20.187,0,45v91c0,24.813,20.187,45,45,45h16v45    c0,6.067,3.654,11.536,9.26,13.858c5.604,2.322,12.057,1.039,16.347-3.251L142.213,181H151v75c0,5.258,0.915,10.305,2.58,15H45    c-24.813,0-45,20.187-45,45v86.236C0,429.676,22.324,452,49.765,452H61v45c0,6.067,3.654,11.537,9.26,13.858    c1.855,0.769,3.805,1.142,5.737,1.142c3.903,0,7.74-1.524,10.609-4.394L142.213,452H316c24.813,0,45-20.187,45-45v-91    c0-5.258-0.915-10.305-2.58-15h11.367l55.606,55.606c4.294,4.296,10.749,5.57,16.347,3.252c5.605-2.322,9.26-7.792,9.26-13.858    v-45h16c24.813,0,45-20.187,45-45v-90C512,141.187,491.814,121,467,121z M136,151c-3.979,0-7.794,1.58-10.606,4.393L91,189.787    V166c0-8.284-6.716-15-15-15H45c-8.271,0-15-6.729-15-15V45c0-8.271,6.729-15,15-15h271c8.271,0,15,6.729,15,15v76H196    c-19.555,0-36.228,12.542-42.42,30H136z M331,407c0,8.271-6.729,15-15,15H136c-3.979,0-7.794,1.581-10.606,4.394L91,460.787V437    c0-8.284-6.716-15-15-15H49.765C38.866,422,30,413.134,30,402.236V316c0-8.271,6.729-15,15-15h271c8.272,0,15,6.729,15,15V407z     M482,256c0,8.271-6.729,15-15,15h-31c-8.284,0-15,6.716-15,15v23.787l-34.394-34.394C383.794,272.58,379.979,271,376,271    c-7.255,0-172.456,0-180,0c-8.271,0-15-6.729-15-15v-90c0-8.271,6.729-15,15-15h271c8.271,0,15,6.729,15,15V256z"/></g></g><g><g><path d="M256,60H106c-8.284,0-15,6.716-15,15s6.716,15,15,15h150c8.284,0,15-6.716,15-15S264.284,60,256,60z"/></g></g><g><g><path d="M406,181H256c-8.284,0-15,6.716-15,15s6.716,15,15,15h150c8.284,0,15-6.716,15-15S414.284,181,406,181z"/></g></g><g><g><path d="M256,331H106c-8.284,0-15,6.716-15,15s6.716,15,15,15h150c8.284,0,15-6.716,15-15S264.284,331,256,331z"/></g></g><g></g><g></g><g></g><g></g><g></g><g></g><g></g><g></g><g></g><g></g><g></g><g></g><g></g><g></g><g></g></svg>