<svg xmlns="http://www.w3.org/2000/svg" xmlns:xlink="http://www.w3.org/1999/xlink" version="1.1" id="Capa_1" x="0px" y="0px" viewBox="0 0 512.004 512.004" style="enable-background:new 0 0 512.004 512.004;" xml:space="preserve"><g><g><path d="M509.476,187.484L425.816,53.07c-3.056-4.908-8.427-7.892-14.206-7.892H100.395c-5.778,0-11.149,2.984-14.206,7.892    L2.529,187.484c-4.016,6.453-3.185,14.797,2.03,20.324l239.268,253.763c3.162,3.352,7.568,5.254,12.175,5.254    s9.013-1.902,12.175-5.259l239.268-253.758C512.655,202.275,513.492,193.937,509.476,187.484z M256.003,425.704L37.75,194.227    l71.942-115.585h292.626l71.937,115.585L256.003,425.704z"/></g></g><g><g><rect x="16.735" y="179.592" width="478.536" height="33.464"/></g></g><g><g><path d="M171.874,194.724l25.801-129.545l-32.823-6.537l-26.771,134.414c-0.63,3.179-0.329,6.47,0.876,9.482l101.508,253.769    l31.071-12.426L171.874,194.724z"/></g></g><g><g><path d="M374.99,191.712l-27.887-130.51l-32.722,6.994l26.821,125.507L240.487,443.847l31.038,12.493l102.629-254.879    C375.391,198.366,375.687,194.969,374.99,191.712z"/></g></g><g></g><g></g><g></g><g></g><g></g><g></g><g></g><g></g><g></g><g></g><g></g><g></g><g></g><g></g><g></g></svg>