<svg xmlns="http://www.w3.org/2000/svg" viewBox="0 -11 412.63237 412"><path d="m172.484375 330.640625c7.121094-.007813 13.824219-3.351563 18.113281-9.039063 4.289063-5.683593 5.664063-13.050781 3.71875-19.898437l-14.136718-49.457031c-.976563-3.441406-4.121094-5.816406-7.695313-5.816406-3.578125 0-6.722656 2.375-7.699219 5.816406l-14.125 49.449218c-1.960937 6.847657-.589844 14.21875 3.699219 19.910157 4.289063 5.6875 11 9.03125 18.125 9.035156zm-6.402344-24.546875 6.402344-22.535156 6.445313 22.542968c.785156 2.738282-.242188 5.671876-2.566407 7.320313-2.320312 1.644531-5.429687 1.644531-7.753906 0-2.324219-1.648437-3.351563-4.582031-2.566406-7.320313zm0 0"/><path d="m238.546875 72.597656 40.511719-31.710937c7.582031-5.941407 10.585937-16.019531 7.496094-25.140625-3.089844-9.121094-11.597657-15.300782-21.226563-15.417969-9.632813-.113281-18.285156 5.863281-21.589844 14.910156l-17.597656 48.320313c-1.226563 3.355468-.078125 7.117187 2.8125 9.214844 2.890625 2.097656 6.820313 2.027343 9.632813-.175782zm20.222656-51.886718c.671875-1.851563 2.117188-3.3125 3.960938-4 .769531-.28125 1.582031-.429688 2.402343-.433594 1.816407.023437 3.546876.777344 4.800782 2.09375 1.253906 1.3125 1.925781 3.078125 1.863281 4.890625-.082031 1.960937-1.015625 3.789062-2.5625 5l-18.464844 14.449219zm0 0"/><path d="m106.417969 72.597656c2.8125 2.21875 6.753906 2.296875 9.652343.195313 2.898438-2.101563 4.046876-5.875 2.8125-9.234375l-17.601562-48.3125c-3.296875-9.054688-11.949219-15.039063-21.585938-14.929688-9.632812.113282-18.148437 6.292969-21.238281 15.421875-3.085937 9.128907-.074219 19.210938 7.515625 25.148438zm-30.445313-54.957031c1.128906-.839844 2.496094-1.292969 3.902344-1.296875.820312 0 1.632812.144531 2.398438.429688 1.84375.6875 3.289062 2.152343 3.953124 4l8.039063 22.015624-18.460937-14.445312c-1.546876-1.210938-2.484376-3.039062-2.5625-5-.128907-2.246094.898437-4.398438 2.730468-5.703125zm0 0"/><path d="m16.554688 220.957031c6.410156 1.804688 13.285156.703125 18.808593-3.015625l42.71875-28.726562c2.914063-1.964844 4.203125-5.605469 3.179688-8.964844-1.027344-3.363281-4.128907-5.664062-7.644531-5.667969h-.335938l-51.414062 1.839844c-11.171876.410156-20.378907 8.890625-21.707032 19.988281-1.324218 11.101563 5.625 21.511719 16.386719 24.539063zm.878906-26.007812c1.21875-1.539063 3.054687-2.464844 5.015625-2.535157l23.433593-.800781-19.449218 13.082031c-2.738282 1.859376-6.425782 1.441407-8.675782-.988281-2.25-2.425781-2.386718-6.136719-.324218-8.722656zm0 0"/><path d="m371.449219 282.09375c-33.269531-33.320312-72.410157-60.203125-115.453125-79.292969l-8.058594-3.5625-8.207031-25.28125c-.789063-2.402343.066406-5.042969 2.121093-6.527343l11.960938-8.6875c44.375 5.277343 86.019531 24.183593 119.199219 54.121093l26.152343 23.535157c2.113282 1.980468 5.128907 2.664062 7.890626 1.785156 2.757812-.875 4.832031-3.175782 5.414062-6.011719s-.410156-5.765625-2.601562-7.660156l-26.183594-23.5625c-31.394532-28.351563-69.949219-47.570313-111.488282-55.574219l13.886719-10.089844c8.40625-6.113281 11.917969-16.9375 8.707031-26.824218-3.210937-9.882813-12.417968-16.574219-22.808593-16.582032h-54.699219c-2.519531.011719-4.761719-1.605468-5.550781-4l-16.886719-52c-3.210938-9.894531-12.429688-16.589844-22.828125-16.589844-10.402344 0-19.617187 6.695313-22.828125 16.589844l-16.898438 52c-.78125 2.398438-3.019531 4.011719-5.542968 4h-54.632813c-10.390625.003906-19.601562 6.695313-22.816406 16.578125-3.214844 9.886719.300781 20.714844 8.707031 26.828125l44.222656 32.136719c2.046876 1.484375 2.902344 4.121094 2.113282 6.519531l-16.890625 52c-3.207031 9.890625.316406 20.71875 8.726562 26.828125 8.414063 6.109375 19.800781 6.109375 28.210938-.003906l44.222656-32.125c2.042969-1.488281 4.8125-1.488281 6.859375 0l44.214844 32.117187c2.929687 2.136719 6.304687 3.585938 9.871094 4.242188.339843.71875.792968 1.378906 1.335937 1.957031 34.148437 33.34375 61.785156 72.753907 81.496094 116.21875l4.800781 10.574219c1.300781 2.859375 4.152344 4.695312 7.296875 4.6875 1.140625.003906 2.265625-.242188 3.300781-.71875 1.9375-.871094 3.449219-2.480469 4.199219-4.464844.75-1.988281.679687-4.191406-.199219-6.125l-4.796875-10.578125c-19.492187-42.886719-46.402343-81.992187-79.496093-115.519531.144531-.097656.304687-.167969.445312-.273438 8.507812-6.039062 12.046875-16.9375 8.714844-26.824218l-1.976563-6.085938c39.230469 18.117188 74.949219 43.035156 105.496094 73.597656l38.6875 38.691407c3.136719 3.03125 8.128906 2.988281 11.214844-.097657 3.085937-3.085937 3.128906-8.078124.097656-11.214843zm-132.949219-42.277344c-2.785156 2.097656-6.625 2.097656-9.410156 0l-44.214844-32.144531c-7.648438-5.574219-18.023438-5.574219-25.671875 0l-44.222656 32.136719c-2.804688 2.039062-6.609375 2.039062-9.414063 0-2.804687-2.039063-3.976562-5.65625-2.898437-8.953125l16.894531-52c2.9375-8.996094-.265625-18.859375-7.925781-24.410157l-44.226563-32.125c-2.804687-2.039062-3.976562-5.648437-2.90625-8.945312 1.074219-3.296875 4.144532-5.527344 7.609375-5.527344h54.65625c9.484375.035156 17.894531-6.070312 20.800781-15.097656l16.886719-52c1.082031-3.28125 4.144531-5.5 7.601563-5.5 3.457031 0 6.519531 2.21875 7.601562 5.5l16.886719 52c2.90625 9.027344 11.320313 15.132812 20.800781 15.097656h54.65625c3.464844.003906 6.53125 2.234375 7.601563 5.53125 1.070312 3.292969-.105469 6.902344-2.90625 8.941406l-44.257813 32.117188c-7.664062 5.554688-10.871094 15.421875-7.925781 24.417969l16.878906 52c1.171875 3.296875-.015625 6.96875-2.894531 8.960937zm0 0"/><path d="m302.828125 192.78125c-3.125 3.125-3.125 8.191406 0 11.3125l8 8c3.136719 3.03125 8.128906 2.988281 11.214844-.097656 3.085937-3.085938 3.128906-8.074219.097656-11.214844l-8-8c-3.125-3.121094-8.191406-3.121094-11.3125 0zm0 0"/><path d="m358.828125 232.78125c-3.125 3.125-3.125 8.191406 0 11.3125l8 8c3.136719 3.03125 8.128906 2.988281 11.214844-.097656 3.085937-3.085938 3.128906-8.074219.097656-11.214844l-8-8c-3.125-3.121094-8.191406-3.121094-11.3125 0zm0 0"/><path d="m338.476562 321.144531c-2.925781-3.316406-7.984374-3.628906-11.296874-.707031-3.3125 2.925781-3.628907 7.984375-.703126 11.296875l11.300782 12.800781c2.925781 3.3125 7.984375 3.628906 11.296875.703125 3.316406-2.925781 3.628906-7.980469.703125-11.296875zm0 0"/><path d="m286.828125 264.78125c-3.125 3.125-3.125 8.191406 0 11.3125l8 8c3.136719 3.03125 8.128906 2.988281 11.214844-.097656 3.085937-3.085938 3.128906-8.074219.097656-11.214844l-8-8c-3.125-3.121094-8.191406-3.121094-11.3125 0zm0 0"/></svg>