<svg id="Capa_1" enable-background="new 0 0 512 512" height="512" viewBox="0 0 512 512" width="512" xmlns="http://www.w3.org/2000/svg"><g><path d="m256 60c-74.439 0-135 60.561-135 135s60.561 135 135 135 135-60.561 135-135-60.561-135-135-135zm0 240c-57.897 0-105-47.103-105-105s47.103-105 105-105 105 47.103 105 105-47.103 105-105 105z"/><path d="m321.245 155.992-35.789-5.2-16.005-32.431c-2.527-5.12-7.742-8.361-13.451-8.361s-10.924 3.241-13.451 8.361l-16.005 32.431-35.789 5.2c-5.65.82-10.345 4.778-12.109 10.208-1.765 5.431-.293 11.392 3.795 15.377l25.897 25.243-6.113 35.645c-.965 5.627 1.348 11.314 5.967 14.671 4.62 3.355 10.743 3.797 15.797 1.142l32.011-16.83 32.01 16.829c2.195 1.153 4.591 1.723 6.979 1.723 3.11 0 6.205-.966 8.818-2.864 4.619-3.356 6.933-9.044 5.967-14.671l-6.113-35.645 25.897-25.243c4.088-3.985 5.56-9.946 3.795-15.377-1.764-5.429-6.458-9.388-12.108-10.208zm-44.171 34.851c-3.535 3.446-5.148 8.411-4.314 13.277l2.309 13.46-12.088-6.355c-2.185-1.148-4.583-1.723-6.98-1.723s-4.795.574-6.98 1.723l-12.088 6.355 2.309-13.46c.834-4.866-.779-9.831-4.314-13.277l-9.78-9.533 13.515-1.964c4.886-.71 9.109-3.778 11.294-8.205l6.043-12.247 6.044 12.247c2.185 4.427 6.409 7.495 11.294 8.205l13.515 1.964z"/><path d="m436.005 228.265c6.681-8.699 14.995-19.524 14.995-33.265s-8.314-24.565-14.995-33.264c-3.583-4.664-7.287-9.487-8.167-12.779-.976-3.648-.167-9.908.616-15.962 1.454-11.252 3.102-24.005-3.563-35.526-6.749-11.662-19.235-16.837-29.268-20.994-5.557-2.303-11.304-4.684-13.856-7.236s-4.934-8.299-7.236-13.856c-4.157-10.033-9.332-22.521-20.996-29.27-11.521-6.666-24.274-5.018-35.527-3.565-6.055.781-12.315 1.592-15.963.615-3.292-.88-8.116-4.585-12.78-8.167-8.699-6.682-19.524-14.996-33.265-14.996s-24.566 8.314-33.264 14.995c-4.664 3.583-9.487 7.287-12.778 8.167-3.649.974-9.909.165-15.962-.616-11.251-1.455-24.004-3.104-35.526 3.563-11.664 6.748-16.838 19.235-20.996 29.269-2.303 5.557-4.684 11.304-7.236 13.855-2.552 2.552-8.299 4.934-13.856 7.236-10.034 4.157-22.522 9.332-29.27 20.995-6.667 11.522-5.019 24.275-3.565 35.528.782 6.053 1.591 12.312.615 15.962-.88 3.292-4.585 8.116-8.167 12.78-6.681 8.7-14.995 19.525-14.995 33.266s8.314 24.565 14.995 33.264c3.583 4.664 7.287 9.487 8.167 12.779.976 3.648.167 9.908-.616 15.962-1.454 11.252-3.102 24.005 3.563 35.526 6.749 11.662 19.235 16.837 29.268 20.994 5.557 2.303 11.304 4.684 13.856 7.236s4.934 8.299 7.236 13.856c1.858 4.483 3.924 9.455 6.676 14.187l-33.12 123.607c-1.57 5.859.544 12.089 5.357 15.782 4.812 3.692 11.376 4.124 16.631 1.09l36-20.784 20.784 36c2.702 4.681 7.679 7.501 12.986 7.5.65 0 1.306-.042 1.962-.128 6.015-.792 10.96-5.13 12.531-10.99l30.015-112.017c2.769.71 5.663 1.136 8.709 1.136s5.94-.426 8.708-1.135l30.015 112.017c1.57 5.86 6.516 10.198 12.531 10.99.657.086 1.312.129 1.962.128 5.307 0 10.284-2.819 12.986-7.5l20.784-36 36 20.784c5.253 3.033 11.818 2.603 16.631-1.09s6.928-9.923 5.357-15.783l-33.121-123.609c2.75-4.73 4.815-9.699 6.672-14.18 2.303-5.557 4.684-11.304 7.236-13.855 2.552-2.552 8.299-4.934 13.856-7.236 10.034-4.157 22.522-9.332 29.27-20.995 6.667-11.522 5.019-24.275 3.565-35.528-.782-6.053-1.591-12.312-.615-15.962.881-3.293 4.585-8.117 8.168-12.781zm-238.333 229.873-10.178-17.628c-1.989-3.445-5.265-5.959-9.108-6.989-3.843-1.029-7.937-.49-11.382 1.499l-17.628 10.178 20.673-77.154c8.105 1.444 16.364.388 23.943-.591 6.053-.783 12.313-1.592 15.964-.615 2.749.735 6.566 3.44 10.467 6.398zm147.324-23.118c-3.445-1.989-7.541-2.527-11.382-1.499-3.843 1.03-7.119 3.544-9.108 6.989l-10.178 17.628-22.75-84.903c3.9-2.958 7.716-5.663 10.463-6.397 3.649-.974 9.909-.165 15.962.616 7.579.98 15.84 2.037 23.947.591l20.673 77.152zm67.217-225.029c-5.125 6.671-10.933 14.233-13.358 23.307-2.504 9.369-1.256 19.03-.155 27.554.802 6.206 1.8 13.93.221 16.659-1.658 2.864-8.938 5.881-14.787 8.305-7.882 3.267-16.815 6.968-23.585 13.738s-10.472 15.703-13.738 23.584c-2.424 5.85-5.44 13.129-8.304 14.786-2.729 1.577-10.452.58-16.658-.223-8.523-1.101-18.185-2.351-27.554.154-9.073 2.426-16.634 8.233-23.306 13.357-5.096 3.916-11.44 8.788-14.989 8.788-3.55 0-9.894-4.872-14.991-8.787-6.671-5.124-14.233-10.932-23.306-13.357-4.025-1.076-8.105-1.46-12.125-1.46-5.337 0-10.569.677-15.431 1.305-6.205.802-13.929 1.8-16.658.221-2.865-1.657-5.881-8.938-8.305-14.787-3.266-7.882-6.967-16.814-13.737-23.585-6.771-6.771-15.704-10.473-23.585-13.738-5.849-2.424-13.128-5.44-14.785-8.304-1.578-2.728-.58-10.451.222-16.657 1.102-8.523 2.35-18.185-.154-27.554-2.425-9.073-8.233-16.635-13.357-23.306-3.916-5.098-8.788-11.442-8.788-14.991 0-3.55 4.873-9.894 8.787-14.991 5.125-6.671 10.933-14.233 13.358-23.307 2.504-9.369 1.256-19.03.155-27.554-.802-6.206-1.8-13.93-.221-16.659 1.658-2.864 8.938-5.881 14.787-8.305 7.882-3.267 16.815-6.968 23.585-13.738s10.472-15.703 13.738-23.584c2.424-5.85 5.44-13.129 8.304-14.786 2.728-1.577 10.452-.58 16.658.223 8.523 1.1 18.184 2.348 27.554-.154 9.073-2.426 16.634-8.233 23.306-13.357 5.096-3.916 11.44-8.788 14.989-8.788 3.55 0 9.894 4.872 14.991 8.787 6.671 5.124 14.233 10.932 23.307 13.357 9.37 2.506 19.03 1.257 27.553.155 6.207-.801 13.93-1.801 16.659-.221 2.865 1.657 5.881 8.938 8.305 14.787 3.266 7.882 6.967 16.814 13.737 23.585 6.771 6.771 15.704 10.473 23.585 13.738 5.849 2.424 13.128 5.44 14.785 8.304 1.578 2.728.58 10.451-.222 16.657-1.102 8.523-2.35 18.185.154 27.554 2.425 9.073 8.233 16.635 13.357 23.306 3.917 5.098 8.789 11.442 8.789 14.991 0 3.55-4.873 9.894-8.787 14.991z"/></g></svg>