<?xml version="1.0" encoding="iso-8859-1"?>
<!-- Generator: Adobe Illustrator 19.0.0, SVG Export Plug-In . SVG Version: 6.00 Build 0)  -->
<svg version="1.1" id="Capa_1" xmlns="http://www.w3.org/2000/svg" xmlns:xlink="http://www.w3.org/1999/xlink" x="0px" y="0px"
	 viewBox="0 0 512.002 512.002" style="enable-background:new 0 0 512.002 512.002;" xml:space="preserve">
<g>
	<g>
		<path d="M387.802,387.463c-4.206,0-7.613,3.409-7.613,7.613v20.175c0,4.205,3.408,7.613,7.613,7.613
			c4.206,0,7.613-3.409,7.613-7.613v-20.175C395.415,390.872,392.006,387.463,387.802,387.463z"/>
	</g>
</g>
<g>
	<g>
		<path d="M387.802,441.78c-4.206,0-7.613,3.409-7.613,7.613v20.175c0,4.205,3.408,7.613,7.613,7.613
			c4.206,0,7.613-3.409,7.613-7.613v-20.175C395.415,445.189,392.006,441.78,387.802,441.78z"/>
	</g>
</g>
<g>
	<g>
		<path d="M425.047,424.709h-20.175c-4.206,0-7.613,3.409-7.613,7.613c0,4.205,3.408,7.613,7.613,7.613h20.175
			c4.206,0,7.613-3.409,7.613-7.613C432.66,428.118,429.253,424.709,425.047,424.709z"/>
	</g>
</g>
<g>
	<g>
		<path d="M370.73,424.709h-20.174c-4.206,0-7.613,3.409-7.613,7.613c0,4.205,3.408,7.613,7.613,7.613h20.174
			c4.206,0,7.613-3.409,7.613-7.613C378.343,428.118,374.935,424.709,370.73,424.709z"/>
	</g>
</g>
<g>
	<g>
		<path d="M357.868,201.357c-4.117-0.85-8.143,1.803-8.992,5.921c-2.835,13.768-12.084,24.246-29.11,32.976
			c-5.973,3.063-12.732,5.778-19.897,8.223c2.655-4.824,4.721-10.411,6.06-16.924c3.452-16.799,0.159-30.236-9.79-39.937
			C283.87,179.65,262,174.393,231.15,175.993c-21.041,1.09-38.874,5.018-41.075,5.518c-24.308,4.321-45.164,6.146-63.085,6.146
			c-72.656-0.004-96.784-30.019-104.334-45.304c-6.846-13.86-8.104-29.957-3.637-46.548c4.418-16.41,14.406-32.364,28.127-44.922
			c3.101-2.838,3.314-7.655,0.475-10.756c-2.839-3.101-7.656-3.314-10.756-0.475C21.036,54.138,9.476,72.674,4.315,91.845
			c-5.443,20.222-3.823,40.018,4.689,57.249c10.678,21.62,31.562,37.588,60.393,46.18c32.336,9.637,73.898,10.037,123.531,1.194
			c0.127-0.022,0.256-0.049,0.382-0.078c19.321-4.467,73.549-12.074,92.205,6.132c6.073,5.926,7.872,14.42,5.499,25.964
			c-4.92,23.933-22.021,33.24-63.097,34.335c-4.204,0.113-7.52,3.611-7.407,7.814c0.111,4.134,3.496,7.41,7.607,7.41
			c0.069,0,0.138-0.001,0.207-0.002c12.292-0.328,24.398-1.297,35.314-4.047c47.025-10.448,92.13-24.682,100.153-63.648
			C364.638,206.231,361.987,202.205,357.868,201.357z"/>
	</g>
</g>
<g>
	<g>
		<path d="M367.959,109.666c-20.083-2.601-42.537-3.919-66.737-3.919c-21.874,0-43.704,1.626-64.816,3.198
			c-28.221,2.101-57.16,4.25-73.166,0.4c-0.447-0.161-0.913-0.28-1.397-0.356c-4.232-1.17-7.444-2.815-9.318-5.072
			c-0.801-0.964-3.237-3.898-0.993-12.37c7.187-27.126,42.741-39.815,71.303-45.683c32.533-6.683,63.732-6.197,64.032-6.196
			c3.642,0.066,6.851-2.476,7.596-6.061c0.745-3.583-1.164-7.191-4.548-8.588c-1.307-0.54-32.517-13.304-75.769-20.448
			C173.911-2.074,115.436-4.77,65.373,20.129c-3.765,1.873-5.299,6.443-3.426,10.207c1.872,3.765,6.443,5.299,10.207,3.426
			C118.472,10.726,173.4,13.313,211.322,19.537c12.569,2.064,24.156,4.652,34.219,7.266c-40.575,4.769-97.628,18.96-108.725,60.844
			c-1.47,5.55-1.799,10.575-1.014,15.055c-13.555-6.005-24.617-17.444-24.617-40.064c0-4.205-3.409-7.613-7.613-7.613
			c-4.205,0-7.613,3.409-7.613,7.613c0,44.766,34.565,58.108,63.654,61.403c7.976,1.956,17.635,2.686,28.64,2.686
			c14.4,0,31.094-1.243,49.286-2.598c20.833-1.551,42.377-3.156,63.684-3.156c23.548,0,45.345,1.276,64.782,3.793
			c4.155,0.533,7.987-2.403,8.527-6.573C375.072,114.023,372.13,110.206,367.959,109.666z"/>
	</g>
</g>
<g>
	<g>
		<path d="M497.443,175.676c-9.686-16.583-24.623-30.442-44.396-41.192c-3.695-2.009-8.317-0.641-10.325,3.052
			c-2.009,3.694-0.643,8.317,3.052,10.325c33.071,17.98,49.841,44.895,49.841,79.999c0,39.206-20.845,73.382-55.761,91.422
			c-3.737,1.93-5.199,6.523-3.27,10.258c1.352,2.618,4.013,4.12,6.77,4.12c1.177,0,2.371-0.274,3.489-0.851
			c40.074-20.704,63.998-59.937,63.998-104.949C510.841,208.455,506.333,190.898,497.443,175.676z"/>
	</g>
</g>
<g>
	<g>
		<path d="M422.301,334.759c-0.966-4.092-5.073-6.628-9.16-5.657c-9.785,2.313-20.115,3.486-30.708,3.486
			c-38.272,0-72.634,0.002-95.239,10.542c-24.12,8.072-52.532,25.901-60.939,52.174c-1.282,4.005,0.926,8.29,4.93,9.571
			c0.771,0.247,1.553,0.364,2.323,0.364c3.222,0,6.214-2.062,7.249-5.295c2.636-8.237,9.364-18.108,21.034-26.928
			c-2.551,11.131-1.314,24.603,3.745,40.753c4.985,15.913,3.903,30.303-3.217,42.768c-11.128,19.483-34.49,30.813-49.23,36.296
			c5.507-24.022,2.193-46.009-9.729-62.994c-14.683-20.92-41.214-32.441-74.705-32.441c-17.323,0-32.43-4.551-43.686-13.161
			c-9.898-7.572-16.651-18.287-19.013-30.171c-2.404-12.094-0.209-24.892,6.18-36.04c7.18-12.527,19.306-22.597,35.067-29.12
			c11.475-4.749,24.813-7.844,40.779-9.461c4.183-0.423,7.232-4.159,6.807-8.342c-0.423-4.184-4.162-7.228-8.342-6.807
			c-17.461,1.769-32.202,5.217-45.067,10.54c-42.572,17.617-55.968,53.978-50.359,82.198c3.085,15.519,11.855,29.475,24.697,39.297
			c13.935,10.66,32.241,16.294,52.937,16.294c28.386,0,50.491,9.22,62.241,25.962c11.294,16.093,12.604,38.542,3.686,63.214
			c-0.948,2.622-0.386,5.554,1.465,7.64c1.463,1.649,3.545,2.561,5.695,2.561c0.57,0,1.146-0.064,1.716-0.196
			c2.106-0.487,51.829-12.342,72.048-47.659c9.335-16.306,10.869-34.787,4.559-54.931c-6.1-19.47-5.807-33.368,0.892-42.486
			c2.966-4.033,7.24-7.2,12.554-9.696c0.027-0.012,0.053-0.027,0.08-0.04c19.621-9.176,53.457-9.181,88.843-9.181
			c11.77,0,23.28-1.31,34.211-3.894C420.736,342.952,423.269,338.851,422.301,334.759z"/>
	</g>
</g>
<g>
	<g>
		<path d="M480.557,68.196l-18.124-3.675c-14.895-3.02-26.471-14.595-29.491-29.491l-3.675-18.124
			c-1.495-7.371-7.791-12.518-15.311-12.518c-7.52,0-13.815,5.148-15.31,12.518l-3.675,18.124
			c-3.02,14.895-14.595,26.471-29.491,29.49l-18.124,3.675c-7.371,1.494-12.517,7.79-12.517,15.311
			c0,7.52,5.147,13.816,12.517,15.311l18.124,3.675c14.896,3.02,26.471,14.595,29.491,29.491l3.675,18.124
			c1.495,7.371,7.791,12.517,15.31,12.517c7.52,0,13.816-5.147,15.311-12.517l3.675-18.124c3.02-14.894,14.596-26.47,29.491-29.49
			l18.124-3.675c7.371-1.494,12.517-7.79,12.517-15.311S487.928,69.691,480.557,68.196z M477.803,83.807
			c-0.019,0.013-0.106,0.054-0.272,0.087l-18.124,3.675c-20.903,4.239-37.149,20.485-41.388,41.389l-3.675,18.124
			c-0.032,0.162-0.072,0.248-0.064,0.248c-0.129,0.091-0.516,0.091-0.622,0.024c-0.013-0.019-0.054-0.106-0.087-0.272l-3.675-18.124
			c-4.238-20.904-20.484-37.15-41.388-41.389l-18.124-3.675c-0.148-0.029-0.232-0.066-0.246-0.066c-0.002,0-0.002,0-0.002,0.002
			c-0.092-0.13-0.092-0.517-0.023-0.623c0.019-0.013,0.106-0.054,0.272-0.087l18.124-3.675
			c20.905-4.238,37.151-20.484,41.388-41.388l3.675-18.124c0.038-0.186,0.064-0.25,0.064-0.249c0.13-0.092,0.518-0.091,0.621-0.023
			c0.014,0.019,0.055,0.106,0.088,0.272l3.675,18.124c4.239,20.904,20.485,37.151,41.388,41.388l18.124,3.675
			c0.172,0.035,0.246,0.075,0.248,0.064C477.872,83.313,477.872,83.7,477.803,83.807z"/>
	</g>
</g>
<g>
	<g>
		<path d="M253.142,294.657l-18.124-3.675c-14.895-3.02-26.471-14.596-29.491-29.491l-3.675-18.124
			c-1.494-7.371-7.79-12.518-15.311-12.518s-13.817,5.148-15.311,12.518l-3.675,18.124c-3.02,14.895-14.596,26.471-29.491,29.491
			l-18.124,3.675c-7.371,1.494-12.518,7.79-12.518,15.311c0,7.52,5.148,13.816,12.518,15.311l18.124,3.675
			c14.895,3.02,26.471,14.596,29.491,29.491l3.675,18.124c1.494,7.371,7.79,12.518,15.311,12.518c7.52,0,13.816-5.148,15.311-12.518
			l3.675-18.124c3.02-14.895,14.596-26.471,29.491-29.491l18.124-3.675c7.37-1.494,12.518-7.79,12.518-15.311
			S260.512,296.151,253.142,294.657z M250.389,310.266c-0.019,0.013-0.106,0.054-0.272,0.087l-18.124,3.675
			c-20.904,4.239-37.15,20.485-41.389,41.389l-3.675,18.124c-0.032,0.162-0.072,0.249-0.065,0.249
			c-0.129,0.092-0.516,0.093-0.622,0.023c-0.013-0.019-0.054-0.106-0.087-0.272l-3.675-18.124
			c-4.239-20.904-20.485-37.15-41.389-41.389l-18.124-3.675c-0.148-0.03-0.233-0.066-0.247-0.066c-0.002,0-0.002,0-0.002,0.001
			c-0.091-0.13-0.091-0.516-0.023-0.622c0.019-0.013,0.106-0.054,0.272-0.087l18.124-3.675c20.904-4.239,37.15-20.485,41.389-41.389
			l3.675-18.124c0.033-0.162,0.072-0.249,0.065-0.249c0.131-0.092,0.517-0.091,0.622-0.023c0.013,0.019,0.054,0.106,0.087,0.272
			l3.675,18.124c4.239,20.904,20.485,37.15,41.389,41.389l18.124,3.675c0.172,0.035,0.253,0.071,0.249,0.064
			C250.456,309.774,250.456,310.16,250.389,310.266z"/>
	</g>
</g>
<g>
</g>
<g>
</g>
<g>
</g>
<g>
</g>
<g>
</g>
<g>
</g>
<g>
</g>
<g>
</g>
<g>
</g>
<g>
</g>
<g>
</g>
<g>
</g>
<g>
</g>
<g>
</g>
<g>
</g>
</svg>
