<svg id="Capa_1" enable-background="new 0 0 512 512" height="512" viewBox="0 0 512 512" width="512" xmlns="http://www.w3.org/2000/svg"><g><g><path d="m497.623 322.438-19.412-16.864c-5.859-5.089-9.219-12.459-9.219-20.221v-121.276l16.409-.032c14.666 0 26.599-11.931 26.599-26.598 0-10.081-5.637-18.869-13.929-23.38 2.763-4.193 4.377-9.207 4.377-14.593 0-12.857-9.17-23.611-21.325-26.07 1.822-3.6 2.855-7.663 2.855-11.966 0-14.042-10.941-25.57-24.745-26.526 1.348-3.063 2.101-6.443 2.101-9.999.001-13.736-11.176-24.913-24.914-24.913h-82.445c-12.104 0-23.598 5.24-31.535 14.377l-16.865 19.412c-5.09 5.859-12.46 9.218-20.221 9.218h-39.743c-.001 0-.002 0-.002 0h-81.531l-.032-16.409c0-14.666-11.932-26.598-26.599-26.598-10.08 0-18.869 5.636-23.38 13.928-4.193-2.763-9.207-4.376-14.593-4.376-12.857 0-23.611 9.17-26.07 21.325-3.6-1.821-7.663-2.854-11.965-2.854-14.042 0-25.57 10.94-26.527 24.744-3.063-1.348-6.443-2.102-9.998-2.102-13.737 0-24.914 11.177-24.914 24.915v31.16c0 4.139 3.355 7.494 7.494 7.494s7.494-3.355 7.494-7.494v-31.16c0-5.473 4.453-9.927 9.926-9.927s9.926 4.454 9.926 9.927v12.042c0 4.139 3.355 7.494 7.494 7.494s7.494-3.355 7.494-7.494v-33.001c0-6.402 5.208-11.61 11.61-11.61 5.831 0 10.658 4.326 11.475 9.935l.08 34.694c.01 4.133 3.363 7.477 7.494 7.477h.018c.006 0 .012-.001.019-.001s.013.001.019.001c4.139 0 7.494-3.355 7.494-7.494l-.172-51.473c0-6.402 5.208-11.61 11.61-11.61 5.633 0 10.338 4.034 11.388 9.376l.104 53.72c.008 4.135 3.362 7.479 7.494 7.479h.015c.037 0 .072-.005.108-.006.038.001.075.006.113.006h.018c4.139-.01 7.486-3.372 7.477-7.512l-.355-61.006c0-6.401 5.208-11.609 11.61-11.609s11.61 5.208 11.61 11.624l.118 60.97c0 .122.013.241.019.361l-1.955 14.711c-.545 4.103 2.339 7.871 6.441 8.416 4.106.542 7.871-2.339 8.416-6.441l2.084-15.683c.919-3.6 3.188-6.598 6.417-8.467 3.322-1.922 7.173-2.367 10.846-1.257 6.945 2.102 11.059 9.274 9.365 16.33-.069.29-.121.583-.156.879l-7.756 66.416c-.91 7.797-5.172 14.775-11.692 19.145l-15.465 10.364c-11.595 7.771-18.517 20.744-18.517 34.702v31.839h-79.226v-32.251c0-12.104-5.24-23.598-14.378-31.536l-19.411-16.863c-5.858-5.091-9.219-12.461-9.219-20.222v-16.937c0-4.139-3.355-7.494-7.494-7.494s-7.494 3.355-7.494 7.494v16.937c0 12.103 5.24 23.597 14.377 31.536l19.412 16.864c5.859 5.09 9.219 12.46 9.219 20.221v121.276l-16.409.032c-14.667.001-26.599 11.932-26.599 26.598 0 10.081 5.637 18.869 13.929 23.38-2.763 4.193-4.376 9.207-4.376 14.593 0 12.857 9.17 23.612 21.324 26.07-1.821 3.6-2.855 7.663-2.855 11.966 0 14.042 10.941 25.57 24.745 26.526-1.348 3.063-2.101 6.443-2.101 9.999-.001 13.737 11.176 24.914 24.914 24.914h82.445c12.103 0 23.598-5.24 31.535-14.377l16.864-19.412c5.09-5.859 12.46-9.219 20.221-9.219h56.996c4.139 0 7.494-3.355 7.494-7.494s-3.355-7.494-7.494-7.494h-9.757v-79.227h37.135l-4.512 38.641c-3.252 14.613 5.327 29.354 19.707 33.706 2.707.819 5.503 1.223 8.291 1.223 4.61 0 9.195-1.118 13.326-3.277v8.935h-29.549c-4.139 0-7.494 3.355-7.494 7.494s3.355 7.494 7.494 7.494h29.64l.032 16.409c0 14.667 11.932 26.598 26.598 26.598 10.08 0 18.869-5.636 23.38-13.928 4.193 2.763 9.207 4.376 14.593 4.376 12.857 0 23.611-9.17 26.07-21.325 3.6 1.822 7.663 2.855 11.966 2.855 14.042 0 25.57-10.94 26.526-24.744 3.063 1.348 6.444 2.102 9.999 2.102 13.738 0 24.915-11.177 24.915-24.916v-82.445c-.001-12.103-5.241-23.598-14.378-31.537zm-244.521-264.442h32.251c12.104 0 23.598-5.24 31.535-14.377l16.865-19.412c5.09-5.859 12.46-9.219 20.221-9.219h82.445c5.473 0 9.926 4.453 9.926 9.926s-4.453 9.927-9.926 9.927h-12.042c-4.139 0-7.494 3.355-7.494 7.494s3.355 7.494 7.494 7.494h33.002c6.402 0 11.61 5.208 11.61 11.61 0 5.831-4.326 10.657-9.934 11.474l-34.695.08c-4.139.01-7.486 3.373-7.477 7.512l.001.019c0 .007-.001.013-.001.013 0 4.146 3.355 7.501 7.494 7.501l51.471-.174c6.402 0 11.61 5.208 11.61 11.61 0 5.634-4.035 10.34-9.378 11.388l-53.718.104c-4.139.008-7.487 3.37-7.48 7.509 0 .039.005.076.006.115-.001.042-.006.082-.006.124.009 4.133 3.363 7.477 7.494 7.477h.018l61.006-.354c6.402 0 11.61 5.208 11.61 11.61 0 6.401-5.208 11.609-11.625 11.609l-60.969.119c-.122 0-.24.013-.361.019l-14.712-1.956c-4.101-.554-7.871 2.338-8.416 6.441-.545 4.102 2.339 7.871 6.441 8.417l15.683 2.085c3.6.918 6.598 3.187 8.467 6.415 1.923 3.322 2.369 7.173 1.257 10.847-2.101 6.944-9.274 11.062-16.33 9.365-.29-.069-.584-.122-.88-.156l-66.416-7.756c-7.796-.91-14.773-5.172-19.143-11.693l-10.365-15.464c-7.771-11.595-20.743-18.517-34.701-18.517h-31.839v-79.226zm191.954 106.128 8.948.044v73.946h-79.227v-37.135l38.64 4.512c2.085.465 4.171.687 6.231.687 12.376-.001 23.745-8.066 27.476-20.394 2.178-7.197 1.414-15.022-2.068-21.66zm-259.272-99.248c-7.18-2.17-14.987-1.416-21.616 2.046v-8.927h73.946v79.227h-37.135l4.512-38.641c3.253-14.612-5.327-29.352-19.707-33.705zm-127.788 209.01h79.227v37.135l-38.641-4.512c-14.613-3.253-29.354 5.327-33.706 19.707-2.174 7.182-1.419 14.989 2.044 21.617h-8.924zm200.899 180.118h-32.249c-12.104 0-23.598 5.24-31.536 14.377l-16.865 19.412c-5.09 5.859-12.46 9.219-20.221 9.219h-82.444c-5.473 0-9.926-4.453-9.926-9.926s4.453-9.927 9.926-9.927h12.042c4.139 0 7.494-3.355 7.494-7.494s-3.355-7.494-7.494-7.494h-33.002c-6.402 0-11.61-5.208-11.61-11.61 0-5.831 4.325-10.657 9.933-11.474l34.695-.08c4.139-.01 7.486-3.373 7.477-7.512l-.001-.019c0-.007.001-.013.001-.013 0-4.146-3.355-7.501-7.494-7.501l-51.472.174c-6.402 0-11.61-5.208-11.61-11.61 0-5.635 4.035-10.34 9.378-11.388l53.718-.104c4.139-.008 7.487-3.369 7.48-7.509 0-.039-.005-.076-.006-.115.001-.042.006-.082.006-.124-.009-4.133-3.363-7.477-7.494-7.477h-.018l-61.007.354c-6.402 0-11.61-5.208-11.61-11.61 0-6.401 5.208-11.609 11.624-11.609l60.97-.119c.122 0 .24-.013.36-.019l14.711 1.956c4.104.549 7.871-2.339 8.416-6.441s-2.339-7.871-6.441-8.417l-15.682-2.085c-3.6-.918-6.599-3.187-8.468-6.416-1.922-3.321-2.369-7.172-1.258-10.845 2.102-6.945 9.278-11.058 16.331-9.366.29.069.583.122.88.156l66.416 7.756c7.796.91 14.774 5.172 19.144 11.693l10.365 15.464c7.771 11.595 20.743 18.517 34.701 18.517h31.837v79.226zm55.321-106.591-1.445 12.375h-85.713c-8.95 0-17.268-4.439-22.251-11.874l-10.364-15.464c-6.815-10.169-17.698-16.815-29.856-18.235l-12.375-1.445v-85.712c0-8.95 4.438-17.268 11.873-22.25l15.465-10.364c10.169-6.816 16.815-17.698 18.234-29.857l1.445-12.375h85.712c8.95 0 17.268 4.439 22.251 11.874l10.365 15.463c6.815 10.17 17.697 16.816 29.856 18.236l12.376 1.445v85.712c0 8.949-4.438 17.268-11.873 22.25l-15.465 10.364c-10.169 6.816-16.815 17.698-18.235 29.857zm182.796 89.007c0 5.473-4.453 9.927-9.926 9.927-5.474 0-9.927-4.454-9.927-9.927v-12.042c0-4.139-3.355-7.494-7.494-7.494s-7.494 3.355-7.494 7.494v33.001c0 6.402-5.208 11.61-11.61 11.61-5.831 0-10.658-4.325-11.475-9.934l-.08-34.695c-.009-4.133-3.363-7.477-7.494-7.477h-.018c-.006 0-.013.001-.019.001-.007 0-.013-.001-.02-.001-4.139 0-7.494 3.355-7.494 7.494l.174 51.471c0 6.402-5.208 11.61-11.61 11.61-5.634 0-10.339-4.035-11.388-9.378l-.104-53.718c-.008-4.134-3.362-7.479-7.494-7.479h-.015c-.037 0-.072.005-.108.006-.038-.001-.075-.006-.113-.006h-.018c-4.139.01-7.486 3.372-7.477 7.512l.354 61.006c0 6.401-5.208 11.609-11.61 11.609s-11.61-5.208-11.61-11.624l-.118-60.97c0-.123-.013-.242-.019-.364l1.955-14.709c.545-4.103-2.339-7.871-6.441-8.416-4.109-.556-7.871 2.339-8.416 6.441l-2.084 15.683c-.919 3.6-3.188 6.598-6.417 8.467-3.32 1.922-7.172 2.367-10.846 1.257-6.945-2.102-11.058-9.275-9.365-16.33.07-.29.121-.584.156-.879l7.756-66.416c.911-7.797 5.172-14.775 11.692-19.145l15.465-10.365c11.595-7.771 18.517-20.744 18.517-34.701v-31.839h79.227v32.251c0 12.104 5.24 23.598 14.377 31.536l19.412 16.863c5.859 5.091 9.219 12.461 9.219 20.222z"/></g></g></svg>