<svg id="Layer_1" height="512" viewBox="0 0 512 512" width="512" xmlns="http://www.w3.org/2000/svg" data-name="Layer 1"><path d="m175.026 209.946c10.724 7.271 22.5 9.8 33.7 9.8a93.912 93.912 0 0 0 27.831-4.6 6 6 0 0 0 4-7.267c-.284-1.067-7.213-26.245-29.009-34.883-14.756-5.85-32.2-2.621-51.863 9.592a6 6 0 0 0 -2.306 7.558 52.562 52.562 0 0 0 17.647 19.8zm32.033-25.818c10.816 4.254 16.94 14.749 19.824 21.285-33.562 8.3-49.778-7.338-55.763-15.607 14.026-7.636 26.096-9.549 35.939-5.678z"/><path d="m265.941 215.149a92.246 92.246 0 0 0 27.705 4.608c15.333 0 26.42-4.79 33.827-9.811a52.565 52.565 0 0 0 17.648-19.8 6 6 0 0 0 -2.306-7.558c-19.659-12.214-37.11-15.44-51.863-9.592-21.8 8.638-28.723 33.816-29.008 34.883a6 6 0 0 0 3.997 7.27zm29.432-31c9.846-3.9 21.924-2.006 35.968 5.631a43.406 43.406 0 0 1 -10.6 10.229c-11.926 8.085-27.091 9.894-45.145 5.4 2.847-6.509 8.922-16.952 19.777-21.255z"/><path d="m100.492 323.459 10.585-18.349a6 6 0 0 0 0-6l-10.585-18.348a6 6 0 0 0 -5.2-3h-21.168a6 6 0 0 0 -5.2 3l-10.582 18.352a6 6 0 0 0 0 6l10.585 18.349a6 6 0 0 0 5.2 3h21.173a6 6 0 0 0 5.192-3.004zm-22.9-9-7.124-12.349 7.124-12.348h14.237l7.124 12.348-7.124 12.349z"/><path d="m458.9 387.749a18.775 18.775 0 1 0 18.775 18.774 18.8 18.8 0 0 0 -18.775-18.774zm0 25.549a6.775 6.775 0 1 1 6.775-6.775 6.782 6.782 0 0 1 -6.775 6.777z"/><path d="m473.527 228.353a6 6 0 0 0 -5.116-3.137l-21.163-.553a5.972 5.972 0 0 0 -5.274 2.864l-11.062 18.066a6 6 0 0 0 -.156 6l10.1 18.62a6 6 0 0 0 5.117 3.136l21.163.553h.158a6 6 0 0 0 5.116-2.866l11.062-18.066a6 6 0 0 0 .156-6zm-9.541 33.458-14.234-.372-6.8-12.531 7.444-12.159 14.235.373 6.8 12.53z"/><path d="m189.855 72.914a5.986 5.986 0 0 0 4.351-1.867 103.041 103.041 0 0 1 44.31-27.507 6 6 0 0 0 -3.524-11.471 115.075 115.075 0 0 0 -49.485 30.711 6 6 0 0 0 4.348 10.134z"/><path d="m399.349 399.97a88.137 88.137 0 0 0 -38.828-23.259l-23.342-6.7a69.972 69.972 0 0 0 25.362-20.247c16.59-20.75 23.872-50.936 18.563-76.861l-8.772-44.477a33.417 33.417 0 0 0 11.929-34.287 26.27 26.27 0 0 0 -9.587-14.756 141.955 141.955 0 0 0 -.263-26.654c2.119-3.066 7.745-9.71 15.9-8.209a6.64 6.64 0 0 1 5.785 5.24c.937 3.762-.5 7.928-2.434 9.459-.49.388-1.4 1.112-3.62-.027a6 6 0 0 0 -5.482 10.675 16.616 16.616 0 0 0 7.594 1.941 14.264 14.264 0 0 0 8.962-3.185c5.829-4.62 8.615-13.773 6.624-21.764a18.535 18.535 0 0 0 -15.258-14.141c-12.972-2.387-21.827 5.508-26.268 10.994v-19.059c-.003-63.22-51.363-114.653-114.494-114.653s-114.491 51.433-114.491 114.653v20.722c-4.425-5.238-15.752-16.366-30.314-13.686a18.535 18.535 0 0 0 -15.257 14.141c-1.99 7.991.8 17.144 6.624 21.765a14.264 14.264 0 0 0 8.961 3.184 16.62 16.62 0 0 0 7.595-1.941 6 6 0 0 0 -5.483-10.675c-2.219 1.14-3.128.416-3.619.027-1.931-1.531-3.371-5.7-2.433-9.459a6.638 6.638 0 0 1 5.784-5.24c8.431-1.549 15.988 6.094 18.959 9.61a142.486 142.486 0 0 0 -.168 26.946 26.328 26.328 0 0 0 -8.743 14.089 33.4 33.4 0 0 0 13.895 35.7l-10.371 41.353c-6.465 24.463-1.056 53.07 14.116 74.659 7.755 11.036 17.425 19.354 28.238 24.509l-22.139 6.357a88.013 88.013 0 0 0 -63.688 82.241l-.986 36.885a6 6 0 0 0 6 6.16h335a6 6 0 0 0 6-6.16l-.986-36.888a87.782 87.782 0 0 0 -24.865-58.982zm-258.602 90.03h-50.388l.823-30.728a75.971 75.971 0 0 1 49.565-69.23zm212.421-147.732c-7.441 9.307-20.211 20.445-38.968 21.142l-8.248-2.368v-33.6a117.958 117.958 0 0 0 13.865-11.158c19.183-17.95 32.343-41.517 37.083-66.397l4.429-15.252 8.013 40.63c4.63 22.621-1.717 48.921-16.174 67.003zm-102.521-8.86c-21.318 0-42.576-9.173-59.857-25.829a113.415 113.415 0 0 1 -32.554-60.2q-.054-.287-.135-.566l-2-6.905c14.617 11.335 32.653 15.442 48.06 15.441a80.484 80.484 0 0 0 13.385-1.088c8.552-1.452 12.6-4.642 16-7.785a24.7 24.7 0 0 1 15.725-6.441h3.958a24.7 24.7 0 0 1 15.723 6.441c3.41 3.144 7.455 6.334 16.006 7.785 17.631 2.993 43.322.389 62.61-15.282l-2.274 7.834a5.754 5.754 0 0 0 -.136.566c-4.161 22.168-16.386 44.087-33.539 60.134-17.846 16.7-39.5 25.895-60.972 25.895zm43.305 1.187v28.434l-3.14 3.058a56.06 56.06 0 0 1 -78.23 0l-3.139-3.057v-27.606a92.243 92.243 0 0 0 41.2 9.984 95 95 0 0 0 43.309-10.808zm-89.743 40.088a68.061 68.061 0 0 0 94.977 0l2.458-2.394 11.563 3.321a61.069 61.069 0 0 1 -60.807 56.39h-2.8a61.068 61.068 0 0 1 -60.778-56l12.928-3.712zm168.04-178.858c.124.38.255.751.355 1.161a21.363 21.363 0 0 1 -9.2 23.04 87.937 87.937 0 0 0 8.845-24.201zm-223.02-71.172c0-56.603 45.977-102.653 102.491-102.653s102.491 46.05 102.491 102.653v22.986c-4.159-.662-9.767-2.358-17.129-6.062a83.009 83.009 0 0 0 -10.026-4.245 48.449 48.449 0 0 0 5.507-9.006c8.667-18.413 4.189-38-1.094-51.186a6 6 0 1 0 -11.139 4.46c.785 1.959 1.445 3.846 2.032 5.688-5.5 10.974-13.486 14.863-21.918 18.956-8.071 3.918-16.927 8.228-21.06 19.088a31.384 31.384 0 0 0 -54.042-.539c-4.907-10.315-14.723-14.792-23.691-18.876-9.751-4.44-18.985-8.658-24.612-19.667.578-1.839 1.247-3.729 2.026-5.676a6 6 0 1 0 -11.138-4.462c-9.581 23.917-5.565 41.46-.507 51.966a52.26 52.26 0 0 0 6.238 9.922 82.33 82.33 0 0 0 -8.24 3.579 62.087 62.087 0 0 1 -16.189 5.9zm164.808 9.292a92.908 92.908 0 0 0 -24.421-.962c1.8-9.011 7.551-11.807 16.069-15.942 6.221-3.02 13.441-6.525 19.728-13.236.624 17.005-7.588 26.636-11.376 30.14zm-43.026 2.411a94.481 94.481 0 0 0 -20.037 7.869 91.886 91.886 0 0 0 -17.741-7.208 19.384 19.384 0 0 1 37.778-.661zm-55.306-2.99a92.709 92.709 0 0 0 -29.2.982c-3.959-3.735-12.846-14.127-12.357-31.736 6.958 7.132 15.331 10.95 22.53 14.228 9.708 4.421 16.738 7.623 19.027 16.526zm-76.1 26.379c6.452.961 16.484-.039 31.211-7.448 33.326-16.77 68.749-1.383 76.413 3.657a6.825 6.825 0 0 0 7.494 0c7.719-5.069 43.406-20.544 76.969-3.657 14.818 7.456 24.881 8.421 31.331 7.43.954 16.143-.87 46.342-17.112 64.351-15.325 16.991-40.643 21.465-58.941 18.356-5.37-.911-7.316-2.413-9.881-4.777a36.714 36.714 0 0 0 -23.511-9.614c-.076 0-.151 0-.226 0h-4.2c-.075 0-.15 0-.226 0a36.722 36.722 0 0 0 -23.513 9.614c-2.564 2.364-4.509 3.866-9.879 4.777-18.3 3.107-43.616-1.366-58.941-18.356-17.139-19.002-17.739-50.159-16.993-64.333zm-9.419 42.333a21.581 21.581 0 0 1 .468-4.431 87.5 87.5 0 0 0 7.893 21.364 21.274 21.274 0 0 1 -8.365-16.933zm16.411 136.868c-13.192-18.772-17.917-43.561-12.314-64.767l8.931-35.613 3.287 11.321a125.521 125.521 0 0 0 35.965 66.332 113.016 113.016 0 0 0 14.981 12.175v32.648l-10.812 3.1c-15.501-1.561-29.7-10.48-40.042-25.196zm204.05 151.054h-197.9v-103.638l24.353-6.992a73.094 73.094 0 0 0 72.5 64.63h2.8a73.1 73.1 0 0 0 72.555-65.017l25.694 7.378zm12 0v-99.958a75.97 75.97 0 0 1 49.566 69.23l.822 30.728z"/><path d="m57.835 390.02a8.586 8.586 0 0 1 -.918-9.584 20.691 20.691 0 0 0 -4.877-25.628l-4.622-3.875a6 6 0 0 0 -7.711 9.195l4.622 3.872a8.648 8.648 0 0 1 2.038 10.714 20.546 20.546 0 0 0 2.2 22.923l5.6 6.807a6 6 0 0 0 9.27-7.62z"/><path d="m387.36 24.4 4.621 3.876a8.649 8.649 0 0 1 2.038 10.715 20.542 20.542 0 0 0 2.2 22.921l5.6 6.808a6 6 0 0 0 9.271-7.619l-5.6-6.809a8.59 8.59 0 0 1 -.918-9.583 20.688 20.688 0 0 0 -4.877-25.627l-4.621-3.876a6 6 0 1 0 -7.714 9.194z"/><path d="m65.193 110.893a18.774 18.774 0 1 0 -18.774 18.774 18.8 18.8 0 0 0 18.774-18.774zm-25.548 0a6.774 6.774 0 1 1 6.774 6.774 6.782 6.782 0 0 1 -6.774-6.774z"/><path d="m419.854 334.485a8.588 8.588 0 0 1 -.919-9.584 20.691 20.691 0 0 0 -4.876-25.628l-4.622-3.875a6 6 0 1 0 -7.711 9.195l4.622 3.876a8.651 8.651 0 0 1 2.038 10.714 20.537 20.537 0 0 0 2.2 22.921l5.595 6.809a6 6 0 1 0 9.271-7.62z"/><path d="m265.337 285.479a43.715 43.715 0 0 1 -27.278 0 6 6 0 0 0 -3.721 11.409 55.65 55.65 0 0 0 34.72 0 6 6 0 0 0 -3.721-11.409z"/></svg>