<svg id="Layer_1" enable-background="new 0 0 511.972 511.972" height="512" viewBox="0 0 511.972 511.972" width="512" xmlns="http://www.w3.org/2000/svg"><g><g><path d="m195.987 189.972c0-5.522-4.478-10-10-10h-.007c-5.522 0-9.997 4.478-9.997 10s4.481 10 10.004 10 10-4.478 10-10z"/><path d="m265.99 199.972c5.522 0 10-4.478 10-10s-4.478-10-10-10h-.007c-5.522 0-9.997 4.478-9.997 10s4.481 10 10.004 10z"/><path d="m261.34 267.641c3.905-3.905 3.905-10.237 0-14.143-3.906-3.904-10.236-3.904-14.143 0-5.666 5.666-13.2 8.787-21.213 8.787s-15.547-3.121-21.213-8.787c-3.906-3.904-10.236-3.904-14.143 0-3.905 3.905-3.905 10.237 0 14.143 9.444 9.443 22 14.645 35.355 14.645s25.913-5.202 35.357-14.645z"/><path d="m435.986 421.972h-20v-20c0-5.522-4.478-10-10-10s-10 4.478-10 10v20h-20.001c-5.522 0-10 4.478-10 10s4.478 10 10 10h20.001v20.001c0 5.522 4.478 10 10 10s10-4.478 10-10v-20.001h20c5.522 0 10-4.478 10-10s-4.478-10-10-10z"/><path d="m405.986 351.972c-24.193 0-45.895 10.81-60.577 27.835l-69.424-13.054v-17.708c38.397-17.672 65.929-55.034 69.58-99.073h5.42c19.299 0 35-15.701 35-35 0-7.44-2.341-14.341-6.315-20.018 31.86-65.892 14.965-105.857 1.753-124.04-16.022-22.051-42.274-34.328-68.178-32.3-15.478-16.141-48.044-30.244-83.924-35.947-27.756-4.413-80.961-7.155-125.49 24.036-49.565 34.718-64.503 113.534-33.571 171.522-2.724 4.978-4.275 10.684-4.275 16.747 0 19.299 15.701 35 35 35h5.42c3.651 44.039 31.183 81.401 69.58 99.073v17.708l-81.847 15.391c-41.401 7.784-68.152 35.193-68.152 69.827v30c0 5.522 4.478 10 10 10h144.995c5.522 0 10-4.478 10-10s-4.478-10-10-10h-134.995v-20c0-29.804 26.783-45.459 51.848-50.171l83.531-15.708c10.541 13.75 27.053 22.049 44.62 22.049s34.079-8.299 44.62-22.05l63.001 11.847c-4.879 10.334-7.62 21.867-7.62 34.033 0 14.566 3.932 28.223 10.762 39.999h-65.767c-5.522 0-10 4.478-10 10s4.478 10 10 10h82.173c14.104 12.434 32.596 20.001 52.832 20.001 44.112 0 80-35.888 80-80s-35.888-79.999-80-79.999zm-55.001-122h-5v-30h5c8.271 0 15 6.729 15 15s-6.729 15-15 15zm-235.68-186.889c38.764-27.152 86.107-24.603 110.875-20.665 37.387 5.942 66.483 21.273 74.879 32.681 2.223 3.02 5.944 4.543 9.649 3.944 19.997-3.232 41.917 6.263 54.534 23.626 10.315 14.197 23.141 45.538-1.718 99.635-3.896-1.501-8.122-2.332-12.54-2.332h-5v-20c0-3.572-1.906-6.874-5-8.66l-2.635-1.515c-17.771-10.186-34.558-19.806-38.439-51.539-.464-3.796-3.053-6.995-6.668-8.24-3.616-1.25-7.625-.319-10.329 2.383-34.609 34.609-123.393 57.571-166.929 57.571-5.522 0-10 4.478-10 10v20h-5c-5.619 0-10.928 1.338-15.638 3.702-22.507-48.339-9.586-112.89 29.959-140.591zm-29.32 171.889c0-8.271 6.729-15 15-15h5v30h-5c-8.272 0-15-6.729-15-15zm40 24.999v-70.314c44.647-2.659 116.852-21.971 157.644-51.75 8.312 27.188 26.546 38.738 42.356 47.854v74.211c0 55.141-44.859 100-100 100s-100-44.861-100-100.001zm100 148.171c-12.042 0-23.315-6.057-30-15.958v-16.009c9.592 2.478 19.645 3.797 30 3.797s20.408-1.319 30-3.797v16.009c-6.685 9.901-17.958 15.958-30 15.958zm180.001 103.83c-33.084 0-60-26.916-60-60s26.916-60 60-60 60 26.916 60 60-26.916 60-60 60z"/><path d="m225.985 471.971h-.008c-5.522 0-9.996 4.478-9.996 10s4.481 10 10.004 10 10-4.478 10-10-4.478-10-10-10z"/></g></g></svg>