<svg id="Layer_1" enable-background="new 0 0 512.001 512.001" height="512" viewBox="0 0 512.001 512.001" width="512" xmlns="http://www.w3.org/2000/svg"><g><g><path d="m506.993 214.143c-17.041-9.817-38.197-9.814-55.213.009-.406.235-.806.479-1.205.723 5.734-31.109 8.126-65.27 7.141-102.03 15.599-2.991 29.429-12.627 37.51-26.623 9.824-17.017 9.827-38.173.007-55.214-1.785-3.098-5.089-5.007-8.664-5.007-.003 0-.006 0-.008 0-19.668.016-37.988 10.597-47.813 27.613-9.39 16.261-9.802 36.302-1.249 52.922.272 7.116.415 14.066.434 20.852-10.333-11.193-25.046-17.823-40.606-17.837-.003 0-.006 0-.009 0-3.575 0-6.88 1.909-8.665 5.008-9.818 17.041-9.815 38.197.008 55.213 9.273 16.061 26.116 26.384 44.516 27.507-4.975 33.53-13.604 61.945-24.711 86.24-4.2-12.686-12.93-23.677-24.802-30.546-3.098-1.791-6.918-1.791-10.016 0-17.024 9.849-27.6 28.173-27.6 47.82 0 17.641 8.529 34.21 22.592 44.541-34.643 39.582-76.276 62.334-110.101 80.818-.856.468-1.686.923-2.533 1.386-.84-.459-1.685-.921-2.535-1.386-33.827-18.484-75.463-41.238-110.108-80.821 14.061-10.331 22.589-26.898 22.589-44.538 0-19.647-10.576-37.972-27.6-47.82-3.098-1.791-6.917-1.791-10.015 0-11.871 6.868-20.6 17.858-24.801 30.542-11.108-24.294-19.736-52.708-24.712-86.236 18.4-1.124 35.243-11.447 44.515-27.507 9.824-17.015 9.827-38.172.008-55.213-1.785-3.099-5.089-5.008-8.665-5.008-.003 0-.006 0-.009 0-15.561.014-30.274 6.645-40.607 17.838.018-6.787.161-13.736.434-20.852 8.552-16.619 8.141-36.661-1.248-52.923-9.823-17.017-28.144-27.598-47.811-27.614-.003 0-.005 0-.008 0-3.575 0-6.879 1.909-8.665 5.007-9.819 17.041-9.816 38.198.008 55.214 8.081 13.996 21.912 23.633 37.51 26.623-.986 36.761 1.407 70.922 7.142 102.031-.4-.245-.799-.489-1.206-.724-17.016-9.825-38.172-9.826-55.213-.009-3.101 1.787-5.011 5.095-5.008 8.674.017 19.668 10.598 37.989 27.613 47.813 8.51 4.914 18.055 7.371 27.605 7.371 7.593 0 15.188-1.56 22.265-4.667 9.853 26.099 22.886 49.869 38.919 70.908 5.992 7.863 12.228 15.148 18.631 21.931-19.144.464-36.869 10.938-46.495 27.578-1.792 3.098-1.792 6.916 0 10.014 9.848 17.024 28.172 27.601 47.82 27.601 18.482 0 35.791-9.36 45.977-24.64 18.172 12.778 36.326 23.123 53.085 32.341-.038.022-.078.044-.115.066-4.765 2.793-6.363 8.92-3.57 13.685 1.862 3.175 5.203 4.944 8.636 4.944 1.718 0 3.459-.443 5.048-1.375 3.366-1.973 6.907-3.976 10.585-6.021 19.275 10.724 35.163 20.544 42.376 31.229 1.932 2.862 5.085 4.406 8.297 4.406 1.925 0 3.871-.555 5.586-1.713 4.578-3.09 5.784-9.305 2.693-13.883-8.032-11.899-21.385-21.411-38.36-31.342 16.755-9.216 34.904-19.558 53.071-32.333 10.186 15.278 27.492 24.635 45.974 24.635 19.649 0 37.973-10.576 47.82-27.601 1.792-3.098 1.792-6.916 0-10.014-9.625-16.639-27.346-27.112-46.488-27.578 6.402-6.783 12.637-14.067 18.628-21.93 16.033-21.039 29.065-44.809 38.917-70.909 7.077 3.107 14.67 4.666 22.263 4.666 9.549 0 19.096-2.457 27.605-7.371 17.017-9.824 27.598-28.145 27.613-47.813.004-3.577-1.906-6.884-5.007-8.671zm-128.337 59.654c7.893 6.635 12.607 16.521 12.607 26.995s-4.715 20.361-12.607 26.996c-7.893-6.635-12.607-16.521-12.607-26.996s4.715-20.36 12.607-26.995zm-245.311 0c7.893 6.635 12.607 16.521 12.607 26.995 0 10.476-4.715 20.361-12.607 26.996-7.893-6.635-12.607-16.521-12.607-26.996s4.715-20.36 12.607-26.995zm-49.162-126.633c5.237-9.072 14.263-15.276 24.416-17.075 3.518 9.691 2.658 20.61-2.579 29.682-5.238 9.072-14.264 15.276-24.416 17.075-3.519-9.692-2.659-20.611 2.579-29.682zm-50.087-70.943c-5.237-9.071-6.097-19.991-2.579-29.683 10.152 1.799 19.178 8.003 24.416 17.075 5.237 9.071 6.097 19.991 2.579 29.683-10.151-1.799-19.178-8.003-24.416-17.075zm3.517 177.088c-9.072-5.237-15.276-14.264-17.075-24.416 9.691-3.519 20.61-2.659 29.682 2.579s15.276 14.265 17.075 24.417c-9.69 3.515-20.609 2.658-29.682-2.58zm98.746 158.056c-10.475 0-20.361-4.715-26.995-12.607 6.634-7.893 16.52-12.607 26.995-12.607 10.476 0 20.362 4.715 26.996 12.607-6.634 7.892-16.52 12.607-26.996 12.607zm319.709-347.752c5.237-9.072 14.264-15.276 24.416-17.075 3.518 9.691 2.658 20.611-2.579 29.683-5.238 9.072-14.265 15.276-24.416 17.075-3.518-9.692-2.658-20.611 2.579-29.683zm-25.671 113.233c-10.151-1.799-19.179-8.003-24.416-17.075-5.237-9.071-6.097-19.99-2.578-29.682 10.151 1.799 19.178 8.003 24.415 17.075 5.238 9.071 6.098 19.99 2.579 29.682zm-27.76 221.912c-6.634 7.893-16.52 12.607-26.995 12.607s-20.361-4.715-26.995-12.607c6.634-7.893 16.52-12.607 26.995-12.607s20.361 4.714 26.995 12.607zm71.751-145.449c-9.071 5.238-19.991 6.097-29.682 2.58 1.799-10.152 8.003-19.18 17.074-24.417 9.072-5.236 19.989-6.097 29.683-2.579-1.799 10.152-8.003 19.178-17.075 24.416z"/><path d="m242.487 319.869c3.439 3.898 8.354 6.137 13.484 6.141h.015c5.108 0 10.007-2.213 13.452-6.075 20.698-22.826 41.412-46.632 61.442-69.652 9.975-11.463 20.288-23.316 30.421-34.843 5.844-6.623 6.29-16.501 1.113-23.632l-34.634-52.375c-3.397-5.132-9.02-8.199-15.05-8.206h-113.479c-6.455 0-12.419 3.502-15.691 9.175l-34.426 52.061c-4.731 7.146-4.093 16.598 1.535 22.964zm-32.456-106.94 22.847 65.72-57.776-65.72zm59.881-61.702 11.728 41.702h-51.298l11.727-41.702zm10.865 61.702-24.786 71.296-24.786-71.296zm35.015 24.224c-12.124 13.933-24.498 28.155-36.952 42.254l23.11-66.478h34.957c-7.092 8.111-14.186 16.261-21.115 24.224zm23.387-44.224h-36.763l-11.727-41.702h20.914zm-138.8-41.702h20.914l-11.727 41.702h-36.764z"/><path d="m205.333 466h-.007c-5.523 0-9.996 4.478-9.996 10s4.48 10 10.003 10 10-4.478 10-10-4.478-10-10-10z"/></g></g></svg>