<svg id="Layer_1" enable-background="new 0 0 512 512" height="512" viewBox="0 0 512 512" width="512" xmlns="http://www.w3.org/2000/svg"><circle cx="379.574" cy="238.81" r="10"/><path d="m320.726 14.373c-19.386-9.521-41.252-14.373-62.827-14.373-66.297 0-125.322 44.144-150.36 104.516-8.081 19.487-12.405 40.571-12.539 61.674.08 12.98 4.27 27.99 13.58 48.27 16.002 34.467 38.042 65.475 57.446 98.01 3.406 5.711 8.621 12.83 9.974 19.73v129.8c0 1.562.406 3.064 1.056 4.472l20 40c1.694 3.388 5.156 5.528 8.944 5.528h100c3.788 0 7.25-2.14 8.944-5.528 0 0 19.983-39.967 20-40 .206-.412 1.056-1.472 1.056-4.472 0 0 0-129.499 0-129.8.001-2.003 1.506-4.186 2.359-5.96 4.171-8.67 25.33-42.099 26.261-43.58 2.857-4.543 1.518-10.874-3.12-13.79-4.593-2.887-10.91-1.461-13.79 3.11-1.32 2.1-16.62 26.27-21.38 34.48-2.698 4.655-4.71 8.407-6.256 11.654l-22.309-10.597 25.985-99.61c.744.056 1.492.093 2.25.093 16.542 0 30-13.458 30-30s-13.458-30-30-30c-12.376 0-23.023 7.533-27.603 18.255l-15.326-15.326c-3.906-3.905-10.236-3.905-14.143 0l-12.928 12.929-12.929-12.929c-3.906-3.905-10.236-3.905-14.143 0l-15.326 15.326c-4.579-10.722-15.226-18.255-27.602-18.255-16.542 0-30 13.458-30 30s13.458 30 30 30c.758 0 1.506-.038 2.25-.093l26.028 99.774-22.059 11.03c-1.121-2.406-2.53-5.131-4.379-8.48-20.917-37.888-47.995-72.392-64.78-112.52-5.24-12.54-8.109-23.77-8.06-31.42.2-37.52 15.64-74.98 42.35-102.57 27.3-28.19 63.01-43.72 100.55-43.72h.04c36.12 0 70.79 15.74 97.63 44.31 26.35 28.049 41.45 65.479 41.43 102.689.04 6.909-2.339 16.789-6.719 27.808-2.028 5.104.572 10.975 5.648 12.972 4.917 1.935 10.915-.433 12.97-5.64 5.49-14.06 8.061-25.22 8.101-35.14.258-63.821-39.323-124.657-96.274-152.627zm-20.907 477.627h-87.639l-10-20h107.639zm16.181-40h-72.268l72.268-25.81zm10-284c5.514 0 10 4.486 10 10s-4.486 10-10 10-10-4.486-10-10 4.486-10 10-10zm-140 20c-5.514 0-10-4.486-10-10s4.486-10 10-10 10 4.486 10 10-4.486 10-10 10zm20.759 11.627c3.34-3.208 5.942-7.176 7.521-11.627h1.72c2.652 0 5.195-1.054 7.071-2.929l12.929-12.929 12.929 12.929c3.906 3.905 10.236 3.905 14.143 0l12.928-12.929 12.929 12.929c1.876 1.875 4.419 2.929 7.071 2.929h1.72c1.579 4.451 4.181 8.419 7.521 11.627l-26.967 103.373h-44.549zm-10.759 139.553 32.36-16.18h55.386l32.254 15.321v23.679h-120zm0 42.82h72.268l-72.268 25.81zm0 47.047 120-42.857v18.763l-120 42.857z"/><path d="m44.908 99.811 28.19 10.261c1.129.411 2.283.606 3.419.606 4.085 0 7.92-2.522 9.397-6.583 1.89-5.19-.786-10.928-5.977-12.817l-28.19-10.261c-5.19-1.891-10.928.787-12.816 5.977-1.889 5.189.787 10.927 5.977 12.817z"/><path d="m467.092 232.189-28.19-10.261c-5.189-1.891-10.928.787-12.816 5.977-1.89 5.19.786 10.928 5.977 12.817l28.19 10.261c1.129.411 2.283.606 3.419.606 4.085 0 7.92-2.522 9.397-6.583 1.889-5.189-.787-10.927-5.977-12.817z"/><path d="m75 166c0-5.523-4.478-10-10-10h-30c-5.522 0-10 4.477-10 10s4.478 10 10 10h30c5.522 0 10-4.477 10-10z"/><path d="m477 156h-30c-5.522 0-10 4.477-10 10s4.478 10 10 10h30c5.522 0 10-4.477 10-10s-4.478-10-10-10z"/><path d="m85.915 227.905c-1.889-5.19-7.628-7.864-12.816-5.977l-28.19 10.261c-5.19 1.889-7.866 7.627-5.977 12.817 1.478 4.061 5.313 6.583 9.397 6.583 1.136 0 2.29-.195 3.419-.606l28.19-10.261c5.191-1.889 7.867-7.627 5.977-12.817z"/><path d="m426.085 104.095c1.478 4.061 5.313 6.583 9.397 6.583 1.136 0 2.29-.195 3.419-.606l28.19-10.261c5.19-1.889 7.866-7.627 5.977-12.817s-7.628-7.866-12.816-5.977l-28.19 10.261c-5.191 1.889-7.867 7.627-5.977 12.817z"/><path d="m103.258 281.112-22.981 19.284c-4.23 3.55-4.783 9.857-1.233 14.087 3.363 4.008 9.859 4.783 14.089 1.234l22.981-19.284c4.23-3.55 4.783-9.858 1.232-14.088-3.549-4.232-9.859-4.782-14.088-1.233z"/><path d="m402.322 53.09c2.296.025 4.605-.678 6.42-2.201l22.981-19.284c4.23-3.55 4.783-9.858 1.232-14.088-3.549-4.231-9.857-4.782-14.088-1.233l-22.981 19.284c-4.23 3.55-4.783 9.856-1.234 14.086 1.842 2.194 4.746 3.404 7.67 3.436z"/><path d="m80.276 31.604s22.949 19.257 22.981 19.284c4.032 3.383 10.505 3.039 14.088-1.233 3.551-4.23 2.998-10.538-1.232-14.088l-22.981-19.284c-4.229-3.549-10.539-2.999-14.088 1.233-3.551 4.231-2.998 10.538 1.232 14.088z"/><path d="m431.724 300.396-22.981-19.284c-4.231-3.549-10.539-2.999-14.088 1.233-3.551 4.23-2.998 10.538 1.232 14.088l22.982 19.284c4.19 3.516 10.573 2.957 14.088-1.233 3.55-4.231 2.997-10.538-1.233-14.088z"/></svg>