<svg height="512pt" viewBox="0 -33 512.00015 512" width="512pt" xmlns="http://www.w3.org/2000/svg"><path d="m512 123.921875c-.039062 9.878906-3.121094 19.707031-9.152344 27.816406l-.148437.203125-211.972657 275.386719c-4.199218 5.613281-9.460937 10.03125-15.382812 13.050781-2.398438 1.222656-4.921875 2.210938-7.511719 2.960938-3.800781 1.089844-7.769531 1.660156-11.832031 1.660156-4.03125 0-7.96875-.558594-11.742188-1.640625-9.019531-2.570313-17.0625-8.109375-22.984374-16.03125l-212.121094-275.589844c-6.03125-8.109375-9.1015628-17.9375-9.152344-27.816406-.0585938-8.261719 2.011719-16.550781 6.253906-23.882813l40.195313-77.890624.222656-.378907c8.070313-13.628906 22.074219-21.769531 37.457031-21.769531h343.746094c15.382812 0 29.382812 8.140625 37.457031 21.769531l.417969.761719 39.988281 77.507812c4.242188 7.332032 6.3125 15.621094 6.261719 23.882813zm0 0" fill="#cef8ff"/><path d="m512 123.921875c-.039062 9.878906-3.121094 19.707031-9.152344 27.816406l-.148437.203125-211.972657 275.386719c-4.199218 5.613281-9.460937 10.03125-15.382812 13.050781-2.398438 1.222656-4.921875 2.210938-7.511719 2.960938-3.800781 1.089844-7.769531 1.660156-11.832031 1.660156v-445h171.875c15.382812 0 29.386719 8.140625 37.457031 21.769531l.417969.761719 39.988281 77.507812c4.242188 7.332032 6.3125 15.621094 6.261719 23.882813zm0 0" fill="#50e6ff"/><path d="m512 123.921875h-512c-.0585938-8.261719 2.011719-16.550781 6.253906-23.882813l40.195313-77.890624.222656-.378907c8.070313-13.628906 22.074219-21.769531 37.457031-21.769531h343.746094c15.382812 0 29.382812 8.140625 37.457031 21.769531l.417969.761719 39.988281 77.507812c4.242188 7.332032 6.3125 15.621094 6.261719 23.882813zm0 0" fill="#62ebff"/><path d="m512 123.921875h-256v-123.921875h171.875c15.382812 0 29.382812 8.140625 37.457031 21.769531l.417969.761719 39.988281 77.507812c4.242188 7.332032 6.3125 15.621094 6.261719 23.882813zm0 0" fill="#31caff"/><path d="m370.023438 123.921875-102.191407 319.417969c-3.800781 1.089844-7.769531 1.660156-11.832031 1.660156-4.03125 0-7.972656-.558594-11.742188-1.640625l-101.277343-319.4375 113.019531-123.921875zm0 0" fill="#50e6ff"/><path d="m370.023438 123.921875-102.191407 319.417969c-3.800781 1.089844-7.769531 1.660156-11.832031 1.660156v-445zm0 0" fill="#31caff"/><path d="m370.023438 123.921875h-227.042969l113.019531-123.921875zm0 0" fill="#cef8ff"/><path d="m370.023438 123.921875h-114.023438v-123.921875zm0 0" fill="#50e6ff"/></svg>